<svg width="90" height="90" viewBox="0 0 90 90" fill="none" xmlns="http://www.w3.org/2000/svg">
<path d="M44.68 87.36C68.2515 87.36 87.36 68.2515 87.36 44.68C87.36 21.1085 68.2515 2 44.68 2C21.1085 2 2 21.1085 2 44.68C2 68.2515 21.1085 87.36 44.68 87.36Z" fill="white" stroke="url(#paint0_linear_80_95)" stroke-width="4" stroke-miterlimit="10"/>
<path d="M43.52 41.03C43.53 40.89 43.54 40.75 43.54 40.61C43.55 39.67 43.53 38.73 43.56 37.79C43.58 37.14 43.49 36.53 43.24 35.93C43.12 35.65 43.04 35.36 42.93 35.03C44.11 35.03 45.24 35.03 46.44 35.03C46.29 35.45 46.13 35.84 46.01 36.24C45.92 36.57 45.84 36.91 45.83 37.24C45.81 38.51 45.82 39.78 45.82 41.05C45.86 41.06 45.89 41.07 45.93 41.08C47.06 38.09 48.19 35.09 49.34 32.05C50.36 32.41 51.33 32.73 52.3 33.09C53.83 33.66 55.3 34.35 56.65 35.3C59.09 37.01 60.42 39.36 60.67 42.3C60.77 43.51 60.74 44.74 60.75 45.96C60.75 46.13 60.65 46.31 60.54 46.45C57.28 50.8 53 53.58 47.61 54.31C39.62 55.39 33.22 52.53 28.43 46.05C28.28 45.85 28.19 45.54 28.2 45.29C28.26 43.78 28.25 42.26 28.46 40.77C28.87 37.85 30.49 35.73 33.08 34.35C35.06 33.29 37.2 32.68 39.36 32.13C39.67 32.05 39.69 32.26 39.76 32.44C40.92 35.17 42.09 37.9 43.25 40.63C43.31 40.77 43.38 40.91 43.44 41.05C43.46 41.04 43.49 41.03 43.52 41.03Z" fill="url(#paint1_linear_80_95)"/>
<path d="M25.9602 52.44C25.1602 53.07 24.4202 53.72 23.6202 54.28C22.9202 54.77 22.3902 55.26 22.8102 56.19C23.0302 58.72 21.1602 61.07 18.6502 61.43C16.0602 61.8 13.5902 60.11 13.1202 57.58C12.7302 55.51 13.3802 53.77 15.1102 52.56C16.8402 51.35 18.6802 51.34 20.5002 52.41C20.7502 52.56 20.9002 52.54 21.1202 52.37C22.7902 51.02 24.4802 49.69 26.1602 48.35C26.2602 48.27 26.3702 48.2 26.5002 48.1C30.9902 54.19 36.9702 57.58 44.5602 57.58C52.1402 57.58 58.1002 54.21 62.6202 48.11C62.7402 48.2 62.8702 48.28 62.9902 48.37C64.6902 49.72 66.4002 51.07 68.0902 52.43C68.3202 52.61 68.4702 52.65 68.7402 52.48C70.6202 51.24 72.9702 51.4 74.6402 52.86C76.3002 54.3 76.8002 56.67 75.8602 58.66C74.9302 60.63 72.8002 61.76 70.6502 61.42C68.4802 61.08 66.7702 59.32 66.5502 57.11C66.4902 56.49 66.5902 55.85 66.6202 55.19C65.5202 54.31 64.3602 53.39 63.1802 52.46C63.0802 52.56 62.9902 52.63 62.9102 52.71C58.8002 57.09 53.7802 59.7 47.8302 60.53C47.3702 60.59 46.9102 60.63 46.4402 60.66C46.2102 60.68 46.1102 60.76 46.1202 61C46.1302 62.15 46.1302 63.31 46.1202 64.46C46.1202 64.74 46.2802 64.81 46.4902 64.89C49.0102 65.92 50.2102 68.68 49.2402 71.2C48.4502 73.25 46.3502 74.54 44.1602 74.32C41.9902 74.1 40.2002 72.43 39.8202 70.27C39.4402 68.09 40.5602 65.93 42.5902 65.01C42.9502 64.85 43.0702 64.67 43.0602 64.27C43.0302 63.21 43.0402 62.15 43.0602 61.09C43.0602 60.78 42.9602 60.68 42.6602 60.66C36.9502 60.2 31.9802 58.02 27.7302 54.18C27.0902 53.63 26.5402 53.03 25.9602 52.44Z" fill="url(#paint2_linear_80_95)"/>
<path d="M51.7201 23.86C51.5601 26.81 50.4701 29.79 48.1301 32.25C47.8001 32.59 47.4201 32.9 47.0301 33.16C45.4001 34.26 43.6701 34.24 42.0501 33.13C40.7801 32.26 39.8701 31.08 39.1501 29.75C37.7701 27.19 37.0701 24.48 37.6001 21.55C37.8901 19.98 38.5401 18.57 39.6001 17.37C42.5401 14.05 47.2001 14.24 49.8701 17.78C51.1501 19.47 51.7101 21.38 51.7201 23.86Z" fill="url(#paint3_linear_80_95)"/>
<defs>
<linearGradient id="paint0_linear_80_95" x1="1.26873e-08" y1="44.6816" x2="89.3632" y2="44.6816" gradientUnits="userSpaceOnUse">
<stop stop-color="#3F63AE"/>
<stop offset="1" stop-color="#18A5DE"/>
</linearGradient>
<linearGradient id="paint1_linear_80_95" x1="28.189" y1="43.2886" x2="60.7402" y2="43.2886" gradientUnits="userSpaceOnUse">
<stop stop-color="#3F63AE"/>
<stop offset="1" stop-color="#18A5DE"/>
</linearGradient>
<linearGradient id="paint2_linear_80_95" x1="13.0002" y1="61.2188" x2="76.3014" y2="61.2188" gradientUnits="userSpaceOnUse">
<stop stop-color="#3F63AE"/>
<stop offset="1" stop-color="#18A5DE"/>
</linearGradient>
<linearGradient id="paint3_linear_80_95" x1="37.4278" y1="24.4858" x2="51.7206" y2="24.4858" gradientUnits="userSpaceOnUse">
<stop stop-color="#3F63AE"/>
<stop offset="1" stop-color="#18A5DE"/>
</linearGradient>
</defs>
</svg>
