<svg width="90" height="90" viewBox="0 0 90 90" fill="none" xmlns="http://www.w3.org/2000/svg">
<path d="M44.68 87.36C68.2515 87.36 87.36 68.2515 87.36 44.68C87.36 21.1085 68.2515 2 44.68 2C21.1085 2 2 21.1085 2 44.68C2 68.2515 21.1085 87.36 44.68 87.36Z" fill="white" stroke="url(#paint0_linear_80_96)" stroke-width="4" stroke-miterlimit="10"/>
<path d="M44.8187 67.9375C40.1987 67.9375 35.5787 67.9375 30.9587 67.9375C26.9887 67.9375 24.2187 65.1775 24.2187 61.2175C24.2187 55.8875 24.2287 50.5575 24.1987 45.2375C24.1987 44.8475 23.9887 44.3775 23.7287 44.0775C22.1387 42.2975 21.6287 40.2575 22.2687 37.9975C23.3487 34.1875 24.4687 30.3975 25.6287 26.6175C26.4987 23.7875 28.9787 22.0075 31.9687 22.0075C40.5287 21.9975 49.0887 21.9975 57.6487 22.0075C60.6987 22.0075 63.1587 23.8475 64.0387 26.7775C65.1287 30.4275 66.2087 34.0875 67.2887 37.7475C68.0087 40.2075 67.5387 42.3775 65.7387 44.2475C65.5287 44.4675 65.4387 44.8975 65.4387 45.2275C65.4187 50.5275 65.4287 55.8275 65.4287 61.1275C65.4287 65.2075 62.6887 67.9375 58.6087 67.9475C53.9987 67.9375 49.4087 67.9375 44.8187 67.9375ZM53.6487 64.3375C53.8687 64.3575 53.9587 64.3775 54.0387 64.3775C55.5387 64.3775 57.0387 64.3875 58.5487 64.3775C60.7487 64.3775 61.8687 63.2875 61.8687 61.1175C61.8787 56.4375 61.8687 51.7675 61.8687 47.0875C61.8687 46.8475 61.8387 46.6075 61.8187 46.3375C58.0687 47.1675 54.7187 46.6175 51.8787 43.9675C48.2087 47.6275 41.4387 47.6375 37.7387 43.9675C34.8887 46.6375 31.5087 47.1675 27.7387 46.3375C27.7387 48.3775 27.7387 50.3275 27.7387 52.2775C27.7387 55.3075 27.7287 58.3375 27.7487 61.3775C27.7587 62.9375 28.7287 64.2375 30.1387 64.3175C32.0487 64.4375 33.9687 64.3475 35.9687 64.3475C35.9687 64.0075 35.9687 63.7275 35.9687 63.4475C35.9687 61.2075 35.9587 58.9675 35.9687 56.7275C35.9887 53.5275 38.2187 50.7675 41.3787 50.4075C43.6087 50.1575 45.8987 50.2475 48.1587 50.3975C49.0887 50.4575 50.0687 50.9375 50.8787 51.4675C52.7287 52.6875 53.6187 54.5175 53.6487 56.7275C53.6787 59.2575 53.6487 61.7775 53.6487 64.3375ZM51.6287 25.5675C51.6287 25.7775 51.6187 25.8975 51.6287 26.0075C52.2787 30.3675 52.9587 34.7275 53.5487 39.0875C53.7087 40.2975 54.0387 41.3175 55.0687 42.0575C57.2187 43.6075 60.8787 43.5675 62.9687 41.9375C63.9587 41.1675 64.2787 40.1375 63.9487 38.9875C62.8587 35.1575 61.7187 31.3475 60.5587 27.5375C60.2187 26.4275 59.3887 25.6375 58.2187 25.5875C56.0587 25.4975 53.8787 25.5675 51.6287 25.5675ZM38.0487 25.5475C35.8787 25.5475 33.8487 25.5375 31.8087 25.5475C30.4787 25.5675 29.3987 26.3475 29.0187 27.6275C27.8887 31.3875 26.7787 35.1475 25.6887 38.9175C25.3687 40.0275 25.5987 41.0475 26.5287 41.8375C28.6987 43.6775 32.7787 43.6775 34.8587 41.7575C35.3587 41.2975 35.7987 40.5775 35.9287 39.9175C36.3487 37.6975 36.6087 35.4475 36.9287 33.2175C37.2887 30.6975 37.6587 28.1875 38.0487 25.5475ZM41.6187 25.5975C40.9487 30.1375 40.3087 34.5875 39.6087 39.0275C39.4287 40.1675 39.7587 41.0275 40.5687 41.7575C42.7587 43.6975 46.8587 43.6975 49.0487 41.7575C49.8687 41.0375 50.2187 40.1675 50.0087 39.0275C49.6987 37.3375 49.4887 35.6175 49.2287 33.9175C48.8187 31.1575 48.4087 28.3975 47.9987 25.6075C45.8487 25.5975 43.7687 25.5975 41.6187 25.5975ZM39.5387 64.3275C43.1087 64.3275 46.5687 64.3275 50.0887 64.3275C50.0887 61.6375 50.1287 59.0075 50.0687 56.3875C50.0387 55.0375 48.7487 53.8575 47.3587 53.8275C45.6587 53.7875 43.9587 53.7875 42.2587 53.8275C40.9087 53.8575 39.5987 54.9975 39.5587 56.3075C39.4887 58.9575 39.5387 61.6175 39.5387 64.3275Z" fill="url(#paint1_linear_80_96)"/>
<defs>
<linearGradient id="paint0_linear_80_96" x1="1.26873e-08" y1="44.6816" x2="89.3632" y2="44.6816" gradientUnits="userSpaceOnUse">
<stop stop-color="#3F63AE"/>
<stop offset="1" stop-color="#18A5DE"/>
</linearGradient>
<linearGradient id="paint1_linear_80_96" x1="21.9987" y1="44.9658" x2="67.6066" y2="44.9658" gradientUnits="userSpaceOnUse">
<stop stop-color="#3F63AE"/>
<stop offset="1" stop-color="#18A5DE"/>
</linearGradient>
</defs>
</svg>
