<svg width="90" height="90" viewBox="0 0 90 90" fill="none" xmlns="http://www.w3.org/2000/svg">
<path d="M44.68 87.36C68.2515 87.36 87.36 68.2515 87.36 44.68C87.36 21.1085 68.2515 2 44.68 2C21.1085 2 2 21.1085 2 44.68C2 68.2515 21.1085 87.36 44.68 87.36Z" fill="white" stroke="url(#paint0_linear_80_97)" stroke-width="4" stroke-miterlimit="10"/>
<path d="M38.6902 68.83C38.8602 67.83 39.0202 66.86 39.1902 65.89C39.3202 65.11 39.4502 64.33 39.6002 63.56C39.6402 63.34 39.5902 63.21 39.4302 63.05C38.2002 61.87 36.9802 60.67 35.7602 59.48C35.4402 59.17 35.3502 58.83 35.5802 58.57C35.7402 58.39 36.0102 58.26 36.2402 58.22C37.8902 57.96 39.5402 57.73 41.2002 57.49C41.4402 57.46 41.5702 57.37 41.6802 57.14C42.4102 55.64 43.1602 54.14 43.8902 52.64C44.0402 52.33 44.2202 52.08 44.6002 52.09C44.9602 52.1 45.1402 52.33 45.2802 52.63C46.0202 54.14 46.7702 55.64 47.5102 57.15C47.6002 57.34 47.7102 57.44 47.9402 57.47C49.6102 57.7 51.2702 57.95 52.9302 58.19C53.2602 58.24 53.5602 58.32 53.6802 58.69C53.7902 59.04 53.6202 59.28 53.3802 59.5C52.1702 60.67 50.9702 61.85 49.7602 63.02C49.6102 63.17 49.5502 63.3 49.5902 63.52C49.8902 65.21 50.1702 66.9 50.4602 68.59C50.5202 68.9 50.4602 69.16 50.2102 69.35C49.9502 69.54 49.6802 69.5 49.4002 69.36C47.9002 68.57 46.4002 67.79 44.9102 66.99C44.6702 66.86 44.4902 66.88 44.2602 67C42.7802 67.79 41.2902 68.57 39.8002 69.35C39.3202 69.6 38.8802 69.45 38.7402 69C38.7002 68.96 38.7002 68.88 38.6902 68.83ZM48.9002 67.6C48.8702 67.38 48.8502 67.23 48.8202 67.08C48.6102 65.83 48.3902 64.58 48.1702 63.33C48.1002 62.96 48.1902 62.67 48.4802 62.41C49.0302 61.91 49.5602 61.39 50.0802 60.86C50.5502 60.38 51.0102 59.89 51.4702 59.4C51.4102 59.39 51.3102 59.36 51.2102 59.34C49.9102 59.15 48.6102 58.95 47.3002 58.78C46.9002 58.73 46.6602 58.55 46.4902 58.2C45.9302 57.02 45.3402 55.86 44.7602 54.69C44.7102 54.59 44.6502 54.49 44.5702 54.34C43.9102 55.68 43.2802 56.94 42.6602 58.22C42.5002 58.55 42.2702 58.73 41.9002 58.77C41.4102 58.82 40.9302 58.91 40.4402 58.98C39.5102 59.12 38.5902 59.25 37.6102 59.4C37.7302 59.53 37.8102 59.62 37.9002 59.7C38.8302 60.6 39.7502 61.51 40.6802 62.4C40.9602 62.67 41.0602 62.95 40.9902 63.32C40.8802 63.9 40.7802 64.49 40.6802 65.08C40.5402 65.9 40.4002 66.72 40.2502 67.59C40.4002 67.52 40.5002 67.48 40.6002 67.43C41.7702 66.81 42.9502 66.2 44.1202 65.58C44.4202 65.42 44.7002 65.41 45.0002 65.58C45.3802 65.79 45.7702 65.99 46.1502 66.19C47.0602 66.63 47.9502 67.1 48.9002 67.6Z" fill="url(#paint1_linear_80_97)"/>
<path d="M44.57 46.01C40.22 45.99 36.77 42.5 36.8 38.17C36.83 33.87 40.31 30.43 44.62 30.44C48.95 30.46 52.4 33.95 52.37 38.3C52.34 42.58 48.85 46.03 44.57 46.01ZM44.81 31.79C41.35 31.68 38.33 34.32 38.15 37.94C37.98 41.37 40.59 44.5 44.33 44.66C47.87 44.81 50.87 42.09 51.03 38.49C51.17 35.05 48.51 31.94 44.81 31.79Z" fill="url(#paint2_linear_80_97)"/>
<path d="M24.1499 62.55C24.2999 61.64 24.4099 60.68 24.6499 59.75C24.8299 59.02 24.7199 58.5 24.1099 58.01C23.4099 57.44 22.7999 56.76 22.1499 56.13C21.9199 55.91 21.7799 55.66 21.8799 55.34C21.9899 55 22.2699 54.89 22.5999 54.85C23.7299 54.7 24.8699 54.54 25.9899 54.35C26.1299 54.33 26.2899 54.19 26.3499 54.06C26.8599 53.05 27.3599 52.04 27.8599 51.02C28.0099 50.72 28.1899 50.5 28.5599 50.51C28.9099 50.52 29.0799 50.73 29.2199 51.02C29.7099 52.04 30.2199 53.05 30.7199 54.07C30.8199 54.27 30.9399 54.36 31.1599 54.39C32.2999 54.54 33.4499 54.71 34.5899 54.88C34.8799 54.92 35.1099 55.06 35.2099 55.35C35.3099 55.64 35.2099 55.89 34.9999 56.1C34.1599 56.91 33.3299 57.73 32.4899 58.54C32.3399 58.68 32.2999 58.81 32.3399 59.02C32.5399 60.1 32.7199 61.18 32.8999 62.26C32.9099 62.34 32.9199 62.42 32.9299 62.5C32.9799 62.78 32.8999 63.02 32.6599 63.19C32.4199 63.36 32.1699 63.35 31.9099 63.22C30.9099 62.69 29.8999 62.18 28.9099 61.63C28.6499 61.49 28.4599 61.48 28.1899 61.63C27.1999 62.17 26.1899 62.7 25.1899 63.21C24.6599 63.46 24.1299 63.14 24.1499 62.55ZM32.9999 56C32.9099 55.98 32.7899 55.96 32.6599 55.94C31.9099 55.83 31.1699 55.71 30.4199 55.62C30.0699 55.58 29.8699 55.4 29.7199 55.09C29.4399 54.49 29.1399 53.9 28.8399 53.31C28.7499 53.12 28.6499 52.94 28.5299 52.7C28.1499 53.46 27.7699 54.14 27.4799 54.85C27.2499 55.4 26.8799 55.62 26.3099 55.67C25.5599 55.75 24.8099 55.89 23.9999 56.01C24.1199 56.13 24.1899 56.22 24.2699 56.3C24.8299 56.84 25.3799 57.39 25.9399 57.93C26.1499 58.13 26.2299 58.35 26.1799 58.64C26.0899 59.15 26.0099 59.65 25.9199 60.16C25.8599 60.54 25.7999 60.93 25.7199 61.38C26.5699 60.94 27.3399 60.55 28.0999 60.13C28.3899 59.97 28.6499 59.97 28.9399 60.12C29.6199 60.49 30.3199 60.84 30.9999 61.2C31.0899 61.25 31.1899 61.29 31.3199 61.35C31.3099 61.22 31.3099 61.14 31.2899 61.06C31.1599 60.34 31.0499 59.62 30.8999 58.9C30.8099 58.45 30.8999 58.12 31.2399 57.8C31.8699 57.23 32.4199 56.61 32.9999 56Z" fill="url(#paint3_linear_80_97)"/>
<path d="M60.52 50.5C60.96 50.49 61.15 50.69 61.3 50.98C61.8 52 62.31 53.01 62.8 54.03C62.91 54.26 63.05 54.34 63.29 54.37C64.42 54.52 65.55 54.69 66.69 54.85C66.99 54.89 67.21 55.04 67.3 55.33C67.4 55.62 67.29 55.87 67.08 56.07C66.26 56.87 65.44 57.67 64.62 58.46C64.45 58.62 64.38 58.77 64.43 59.02C64.64 60.11 64.81 61.21 65 62.3C65.06 62.63 65.06 62.95 64.74 63.16C64.44 63.36 64.16 63.27 63.87 63.11C62.88 62.58 61.88 62.07 60.9 61.54C60.7 61.43 60.56 61.44 60.37 61.55C59.38 62.08 58.39 62.6 57.4 63.12C57.11 63.27 56.83 63.36 56.53 63.15C56.23 62.94 56.22 62.65 56.28 62.32C56.48 61.2 56.65 60.09 56.86 58.97C56.9 58.76 56.85 58.63 56.71 58.49C55.89 57.71 55.09 56.91 54.27 56.12C54.03 55.89 53.87 55.64 53.99 55.3C54.1 54.96 54.38 54.86 54.71 54.82C55.84 54.67 56.98 54.51 58.1 54.32C58.23 54.3 58.39 54.15 58.46 54.02C58.98 53 59.48 51.97 59.98 50.95C60.1 50.7 60.29 50.5 60.52 50.5ZM65.06 55.99C64.31 55.88 63.52 55.75 62.73 55.66C62.26 55.61 61.94 55.42 61.74 54.96C61.41 54.21 61.02 53.49 60.65 52.74C60.61 52.78 60.59 52.79 60.58 52.81C60.31 53.35 60.04 53.89 59.77 54.43C59.12 55.72 59.42 55.5 57.95 55.73C57.35 55.82 56.74 55.91 56.16 55.99C56.64 56.5 57.06 57.04 57.58 57.46C58.24 57.99 58.38 58.57 58.16 59.36C57.99 59.99 57.93 60.66 57.81 61.38C58.42 61.06 58.97 60.77 59.51 60.49C60.8 59.82 60.45 59.82 61.75 60.49C62.3 60.77 62.84 61.06 63.42 61.37C63.41 61.22 63.42 61.13 63.4 61.05C63.28 60.36 63.19 59.67 63.03 58.99C62.9 58.46 63.04 58.09 63.43 57.71C64.01 57.17 64.52 56.57 65.06 55.99Z" fill="url(#paint4_linear_80_97)"/>
<path d="M67.57 35.72C67.56 38.88 65.01 41.41 61.86 41.4C58.69 41.39 56.16 38.86 56.17 35.7C56.18 32.54 58.74 29.99 61.88 30C65.03 30.01 67.58 32.57 67.57 35.72ZM61.88 31.35C59.49 31.34 57.52 33.3 57.51 35.69C57.5 38.08 59.45 40.04 61.84 40.06C64.24 40.08 66.22 38.11 66.22 35.71C66.23 33.32 64.27 31.36 61.88 31.35Z" fill="url(#paint5_linear_80_97)"/>
<path d="M27.3001 41.4C24.1401 41.4 21.5901 38.85 21.6001 35.71C21.6001 32.55 24.1801 29.99 27.3101 30C30.4701 30.01 33.0001 32.55 33.0001 35.71C33.0001 38.87 30.4701 41.4 27.3001 41.4ZM22.9501 35.72C22.9501 38.11 24.9101 40.06 27.3001 40.06C29.6901 40.06 31.6501 38.1 31.6601 35.72C31.6601 33.32 29.6901 31.35 27.2901 31.36C24.9001 31.36 22.9501 33.32 22.9501 35.72Z" fill="url(#paint6_linear_80_97)"/>
<path d="M32.1602 51.71C32.3202 51.46 32.4102 51.25 32.5602 51.1C33.7602 49.83 35.2302 48.95 36.8502 48.33C37.5802 48.05 38.3402 47.81 39.1002 47.61C39.3402 47.55 39.6502 47.59 39.8802 47.69C43.0202 49.17 46.1502 49.17 49.2802 47.69C49.4802 47.59 49.7502 47.53 49.9602 47.58C52.1102 48.1 54.1102 48.94 55.8202 50.37C56.1302 50.63 56.4102 50.91 56.6902 51.2C56.9802 51.5 56.9602 51.93 56.6902 52.18C56.4002 52.45 56.0102 52.43 55.7102 52.12C54.1402 50.48 52.1602 49.57 50.0102 48.99C49.8802 48.96 49.7102 48.98 49.5902 49.03C46.2402 50.52 42.9002 50.52 39.5502 49.03C39.4402 48.98 39.3002 48.93 39.2002 48.96C37.2302 49.51 35.3802 50.3 33.8502 51.71C33.6802 51.87 33.5302 52.04 33.3602 52.19C33.1402 52.38 32.8702 52.45 32.6302 52.29C32.4602 52.15 32.3402 51.93 32.1602 51.71Z" fill="url(#paint7_linear_80_97)"/>
<path d="M17 49.8999C17.04 49.1399 17.03 48.3599 17.15 47.6099C17.37 46.1799 18.14 45.0399 19.24 44.1299C20.49 43.0899 21.95 42.4899 23.51 42.1099C23.67 42.0699 23.88 42.1199 24.03 42.1899C26.22 43.2299 28.39 43.2399 30.58 42.1899C30.73 42.1199 30.94 42.0699 31.1 42.0999C32.57 42.4499 33.95 43.0099 35.15 43.9499C35.3 44.0699 35.44 44.2499 35.5 44.4299C35.59 44.7099 35.48 44.9799 35.21 45.1399C34.92 45.3099 34.64 45.2699 34.38 45.0599C33.47 44.3399 32.43 43.8699 31.32 43.5599C31.14 43.5099 30.91 43.5199 30.74 43.5999C28.45 44.5499 26.16 44.5599 23.87 43.6099C23.69 43.5399 23.44 43.5199 23.26 43.5699C21.91 43.9499 20.67 44.5399 19.67 45.5599C18.84 46.4099 18.39 47.4199 18.39 48.6099C18.39 49.6099 18.39 50.5999 18.39 51.5999C18.38 52.1899 17.87 52.5399 17.39 52.2699C17.14 52.1299 17.03 51.8999 17.03 51.6099C17.04 51.0399 17.03 50.4699 17.03 49.8899C17.03 49.8999 17.01 49.8999 17 49.8999Z" fill="url(#paint8_linear_80_97)"/>
<path d="M72.1299 49.95C72.1299 50.49 72.1299 51.03 72.1299 51.56C72.1299 52.04 71.8699 52.35 71.4699 52.35C71.0499 52.35 70.7799 52.04 70.7799 51.54C70.7799 50.62 70.7599 49.71 70.7799 48.79C70.8199 47.09 70.0299 45.84 68.7099 44.87C67.8299 44.23 66.8399 43.82 65.7999 43.52C65.6699 43.48 65.4999 43.51 65.3799 43.56C63.0499 44.55 60.7199 44.55 58.3799 43.57C58.2399 43.51 58.0399 43.5 57.8899 43.54C56.7699 43.86 55.7199 44.32 54.7999 45.05C54.4399 45.33 54.0399 45.3 53.7899 44.99C53.5499 44.69 53.5999 44.27 53.9499 44C55.1799 43.02 56.6099 42.45 58.1199 42.09C58.2699 42.05 58.4599 42.12 58.6099 42.2C60.7999 43.24 62.9799 43.24 65.1599 42.18C65.2999 42.11 65.4999 42.07 65.6499 42.1C67.4499 42.54 69.1199 43.25 70.4499 44.6C71.5599 45.73 72.1299 47.09 72.1299 48.68C72.1299 49.11 72.1299 49.53 72.1299 49.95Z" fill="url(#paint9_linear_80_97)"/>
<defs>
<linearGradient id="paint0_linear_80_97" x1="1.26873e-08" y1="44.6816" x2="89.3632" y2="44.6816" gradientUnits="userSpaceOnUse">
<stop stop-color="#3F63AE"/>
<stop offset="1" stop-color="#18A5DE"/>
</linearGradient>
<linearGradient id="paint1_linear_80_97" x1="35.4497" y1="60.8109" x2="53.7046" y2="60.8109" gradientUnits="userSpaceOnUse">
<stop stop-color="#3F63AE"/>
<stop offset="1" stop-color="#18A5DE"/>
</linearGradient>
<linearGradient id="paint2_linear_80_97" x1="36.7978" y1="38.2276" x2="52.3714" y2="38.2276" gradientUnits="userSpaceOnUse">
<stop stop-color="#3F63AE"/>
<stop offset="1" stop-color="#18A5DE"/>
</linearGradient>
<linearGradient id="paint3_linear_80_97" x1="21.8462" y1="56.8994" x2="35.2438" y2="56.8994" gradientUnits="userSpaceOnUse">
<stop stop-color="#3F63AE"/>
<stop offset="1" stop-color="#18A5DE"/>
</linearGradient>
<linearGradient id="paint4_linear_80_97" x1="53.9292" y1="56.8981" x2="67.3272" y2="56.8981" gradientUnits="userSpaceOnUse">
<stop stop-color="#3F63AE"/>
<stop offset="1" stop-color="#18A5DE"/>
</linearGradient>
<linearGradient id="paint5_linear_80_97" x1="56.1714" y1="35.6986" x2="67.5735" y2="35.6986" gradientUnits="userSpaceOnUse">
<stop stop-color="#3F63AE"/>
<stop offset="1" stop-color="#18A5DE"/>
</linearGradient>
<linearGradient id="paint6_linear_80_97" x1="21.5963" y1="35.6988" x2="32.997" y2="35.6988" gradientUnits="userSpaceOnUse">
<stop stop-color="#3F63AE"/>
<stop offset="1" stop-color="#18A5DE"/>
</linearGradient>
<linearGradient id="paint7_linear_80_97" x1="32.1597" y1="49.9666" x2="56.9117" y2="49.9666" gradientUnits="userSpaceOnUse">
<stop stop-color="#3F63AE"/>
<stop offset="1" stop-color="#18A5DE"/>
</linearGradient>
<linearGradient id="paint8_linear_80_97" x1="17" y1="47.2285" x2="35.5351" y2="47.2285" gradientUnits="userSpaceOnUse">
<stop stop-color="#3F63AE"/>
<stop offset="1" stop-color="#18A5DE"/>
</linearGradient>
<linearGradient id="paint9_linear_80_97" x1="53.6381" y1="47.2216" x2="72.1313" y2="47.2216" gradientUnits="userSpaceOnUse">
<stop stop-color="#3F63AE"/>
<stop offset="1" stop-color="#18A5DE"/>
</linearGradient>
</defs>
</svg>
