<svg width="90" height="90" viewBox="0 0 90 90" fill="none" xmlns="http://www.w3.org/2000/svg">
<path d="M44.68 87.36C68.2515 87.36 87.36 68.2515 87.36 44.68C87.36 21.1085 68.2515 2 44.68 2C21.1085 2 2 21.1085 2 44.68C2 68.2515 21.1085 87.36 44.68 87.36Z" fill="white" stroke="url(#paint0_linear_80_99)" stroke-width="4" stroke-miterlimit="10"/>
<path d="M60.24 51.13C61.95 51.41 63.34 52.21 64.38 53.58C65.25 54.73 65.68 56.03 65.66 57.48C65.62 60.75 63.12 63.28 60.24 63.66C60.24 63.93 60.24 64.2 60.24 64.47C60.24 64.99 60.16 65.5 59.95 65.98C59.32 67.4 58.24 68.21 56.69 68.38C56.52 68.4 56.34 68.4 56.17 68.4C47.76 68.4 39.35 68.4 30.93 68.4C29 68.4 27.39 67.06 27.06 65.16C27.02 64.95 27 64.74 27 64.53C27 51.64 27 38.75 27 25.86C27 23.96 28.43 22.31 30.31 22.05C30.53 22.02 30.75 22 30.97 22C39.43 22 47.88 22 56.34 22C58.37 22 60.05 23.54 60.22 25.56C60.23 25.7 60.24 25.85 60.24 25.99C60.24 34.3 60.24 42.6 60.24 50.91C60.24 50.98 60.24 51.05 60.24 51.13ZM58.44 51.13C58.44 51.05 58.44 50.98 58.44 50.91C58.44 42.64 58.44 34.38 58.44 26.11C58.44 26.02 58.44 25.93 58.44 25.83C58.42 25.27 58.21 24.79 57.81 24.39C57.37 23.96 56.83 23.79 56.21 23.79C47.86 23.79 39.51 23.79 31.16 23.79C31.05 23.79 30.94 23.79 30.83 23.79C29.7 23.82 28.79 24.75 28.79 25.88C28.79 38.76 28.79 51.64 28.8 64.52C28.8 64.79 28.86 65.08 28.97 65.32C29.36 66.2 30.06 66.61 31.02 66.61C39.42 66.61 47.83 66.61 56.23 66.61C56.29 66.61 56.36 66.61 56.42 66.61C56.85 66.6 57.24 66.47 57.58 66.22C57.93 65.97 58.18 65.63 58.33 65.23C58.52 64.71 58.43 64.18 58.45 63.66C58.39 63.65 58.34 63.64 58.3 63.63C56.04 63.2 54.46 61.93 53.52 59.84C53.46 59.71 53.41 59.67 53.27 59.67C48.77 59.67 44.27 59.67 39.77 59.67C39.37 59.67 39.04 59.44 38.91 59.08C38.79 58.73 38.89 58.34 39.18 58.09C39.39 57.92 39.63 57.88 39.89 57.88C44.21 57.88 48.53 57.88 52.86 57.88C52.92 57.88 52.98 57.88 53.05 57.88C52.95 56.21 53.39 54.72 54.43 53.44C55.45 52.15 56.81 51.39 58.44 51.13ZM59.33 52.86C56.85 52.86 54.81 54.88 54.81 57.35C54.8 59.85 56.82 61.91 59.29 61.91C61.82 61.91 63.87 59.91 63.87 57.43C63.88 54.9 61.86 52.87 59.33 52.86Z" fill="url(#paint1_linear_80_99)"/>
<path d="M30.7002 31.63C30.7002 30.87 30.7002 30.11 30.7002 29.35C30.7002 28.76 31.0702 28.39 31.6602 28.39C33.1702 28.39 34.6902 28.39 36.2002 28.39C36.7902 28.39 37.1702 28.77 37.1702 29.36C37.1702 30.87 37.1702 32.39 37.1702 33.9C37.1702 34.49 36.7902 34.86 36.2102 34.86C34.6902 34.86 33.1702 34.86 31.6502 34.86C31.0802 34.86 30.7002 34.49 30.7002 33.92C30.7002 33.15 30.7002 32.39 30.7002 31.63ZM32.4902 33.06C33.4602 33.06 34.4202 33.06 35.3702 33.06C35.3702 32.1 35.3702 31.15 35.3702 30.19C34.4102 30.19 33.4502 30.19 32.4902 30.19C32.4902 31.15 32.4902 32.1 32.4902 33.06Z" fill="url(#paint2_linear_80_99)"/>
<path d="M30.7002 58.76C30.7002 58.01 30.7002 57.25 30.7002 56.5C30.7002 55.91 31.0702 55.54 31.6602 55.54C33.1802 55.54 34.7002 55.54 36.2202 55.54C36.8002 55.54 37.1702 55.92 37.1702 56.49C37.1702 58.01 37.1702 59.53 37.1702 61.05C37.1702 61.64 36.7902 62.01 36.2102 62.01C34.6902 62.01 33.1702 62.01 31.6502 62.01C31.0702 62.01 30.7002 61.63 30.7002 61.06C30.7002 60.29 30.7002 59.53 30.7002 58.76ZM32.4902 57.33C32.4902 58.3 32.4902 59.25 32.4902 60.2C33.4602 60.2 34.4102 60.2 35.3702 60.2C35.3702 59.24 35.3702 58.29 35.3702 57.33C34.4102 57.33 33.4502 57.33 32.4902 57.33Z" fill="url(#paint3_linear_80_99)"/>
<path d="M33.9402 37.44C34.7002 37.44 35.4602 37.44 36.2202 37.44C36.8002 37.44 37.1702 37.81 37.1702 38.39C37.1702 39.9 37.1702 41.42 37.1702 42.93C37.1702 43.53 36.8002 43.9 36.2002 43.9C34.6902 43.9 33.1702 43.9 31.6602 43.9C31.1602 43.9 30.8002 43.63 30.7102 43.17C30.7002 43.11 30.7002 43.03 30.7002 42.95C30.7002 41.43 30.7002 39.9 30.7002 38.38C30.7002 37.81 31.0702 37.44 31.6502 37.44C32.4102 37.44 33.1802 37.44 33.9402 37.44ZM35.3802 39.23C35.3402 39.23 35.3102 39.22 35.2802 39.22C34.3902 39.22 33.5002 39.22 32.6102 39.22C32.5002 39.22 32.4802 39.26 32.4802 39.36C32.4802 40.23 32.4802 41.1 32.4802 41.97C32.4802 42.02 32.4802 42.06 32.4902 42.11C33.4602 42.11 34.4102 42.11 35.3802 42.11C35.3802 41.15 35.3802 40.2 35.3802 39.23Z" fill="url(#paint4_linear_80_99)"/>
<path d="M30.6999 49.72C30.6999 48.97 30.6999 48.21 30.6999 47.46C30.6999 46.86 31.0699 46.49 31.6699 46.49C33.1799 46.49 34.6999 46.49 36.2099 46.49C36.7899 46.49 37.1699 46.86 37.1699 47.44C37.1699 48.97 37.1699 50.5 37.1699 52.03C37.1699 52.58 36.7899 52.96 36.2399 52.96C34.6999 52.96 33.1599 52.96 31.6199 52.96C31.0699 52.96 30.6899 52.58 30.6899 52.03C30.6999 51.25 30.6999 50.49 30.6999 49.72ZM35.3699 51.17C35.3699 50.2 35.3699 49.24 35.3699 48.29C34.3999 48.29 33.4499 48.29 32.4899 48.29C32.4899 48.32 32.4799 48.35 32.4799 48.37C32.4799 49.26 32.4799 50.16 32.4799 51.05C32.4799 51.16 32.5299 51.17 32.6199 51.17C33.4999 51.17 34.3699 51.17 35.2499 51.17C35.2899 51.17 35.3199 51.17 35.3699 51.17Z" fill="url(#paint5_linear_80_99)"/>
<path d="M47.6799 41.57C45.0399 41.57 42.3999 41.57 39.7699 41.57C39.3799 41.57 39.0899 41.39 38.9299 41.03C38.7799 40.68 38.8399 40.36 39.0899 40.07C39.2599 39.87 39.4899 39.79 39.7499 39.78C39.7999 39.78 39.8599 39.78 39.9099 39.78C45.1199 39.78 50.3299 39.78 55.5499 39.78C56.0499 39.78 56.3899 40.01 56.5099 40.43C56.6699 40.99 56.2599 41.55 55.6799 41.56C55.2299 41.57 54.7799 41.56 54.3299 41.56C52.0999 41.57 49.8899 41.57 47.6799 41.57Z" fill="url(#paint6_linear_80_99)"/>
<path d="M47.7098 48.83C50.3498 48.83 52.9898 48.83 55.6198 48.83C56.2998 48.83 56.7398 49.51 56.4398 50.11C56.2798 50.44 55.9998 50.6 55.6398 50.62C55.5998 50.62 55.5598 50.62 55.5198 50.62C50.3198 50.62 45.1198 50.62 39.9298 50.62C39.7898 50.62 39.6498 50.62 39.5098 50.58C39.0898 50.48 38.7998 50.06 38.8498 49.64C38.9098 49.17 39.2598 48.83 39.7198 48.83C40.2598 48.82 40.7998 48.83 41.3498 48.83C43.4698 48.83 45.5898 48.83 47.7098 48.83Z" fill="url(#paint7_linear_80_99)"/>
<path d="M47.69 32.52C45.08 32.52 42.47 32.52 39.86 32.52C39.58 32.52 39.32 32.47 39.11 32.26C38.85 32 38.77 31.62 38.91 31.28C39.05 30.94 39.37 30.73 39.75 30.73C43.94 30.73 48.12 30.73 52.31 30.73C53.42 30.73 54.53 30.73 55.63 30.73C56.08 30.73 56.47 31.07 56.51 31.5C56.56 31.98 56.29 32.39 55.83 32.49C55.72 32.52 55.6 32.52 55.48 32.52C52.9 32.52 50.29 32.52 47.69 32.52Z" fill="url(#paint8_linear_80_99)"/>
<path d="M58.67 57.64C59.05 57.26 59.41 56.89 59.78 56.53C60.2 56.11 60.62 55.69 61.04 55.27C61.31 55 61.64 54.92 62 55.05C62.36 55.18 62.55 55.45 62.58 55.83C62.6 56.12 62.48 56.36 62.28 56.57C61.39 57.45 60.51 58.34 59.62 59.23C59.52 59.33 59.42 59.44 59.31 59.54C58.93 59.9 58.39 59.9 58.02 59.53C57.48 58.99 56.93 58.44 56.39 57.9C56.01 57.52 56 56.96 56.37 56.6C56.73 56.24 57.28 56.26 57.66 56.63C57.99 56.95 58.32 57.29 58.67 57.64Z" fill="url(#paint9_linear_80_99)"/>
<defs>
<linearGradient id="paint0_linear_80_99" x1="1.26873e-08" y1="44.6816" x2="89.3632" y2="44.6816" gradientUnits="userSpaceOnUse">
<stop stop-color="#3F63AE"/>
<stop offset="1" stop-color="#18A5DE"/>
</linearGradient>
<linearGradient id="paint1_linear_80_99" x1="27" y1="45.1993" x2="65.6567" y2="45.1993" gradientUnits="userSpaceOnUse">
<stop stop-color="#3F63AE"/>
<stop offset="1" stop-color="#18A5DE"/>
</linearGradient>
<linearGradient id="paint2_linear_80_99" x1="30.7005" y1="31.6227" x2="37.1734" y2="31.6227" gradientUnits="userSpaceOnUse">
<stop stop-color="#3F63AE"/>
<stop offset="1" stop-color="#18A5DE"/>
</linearGradient>
<linearGradient id="paint3_linear_80_99" x1="30.7007" y1="58.7729" x2="37.1735" y2="58.7729" gradientUnits="userSpaceOnUse">
<stop stop-color="#3F63AE"/>
<stop offset="1" stop-color="#18A5DE"/>
</linearGradient>
<linearGradient id="paint4_linear_80_99" x1="30.7008" y1="40.6766" x2="37.1736" y2="40.6766" gradientUnits="userSpaceOnUse">
<stop stop-color="#3F63AE"/>
<stop offset="1" stop-color="#18A5DE"/>
</linearGradient>
<linearGradient id="paint5_linear_80_99" x1="30.7003" y1="49.7221" x2="37.1737" y2="49.7221" gradientUnits="userSpaceOnUse">
<stop stop-color="#3F63AE"/>
<stop offset="1" stop-color="#18A5DE"/>
</linearGradient>
<linearGradient id="paint6_linear_80_99" x1="38.8436" y1="40.6742" x2="56.5332" y2="40.6742" gradientUnits="userSpaceOnUse">
<stop stop-color="#3F63AE"/>
<stop offset="1" stop-color="#18A5DE"/>
</linearGradient>
<linearGradient id="paint7_linear_80_99" x1="38.8474" y1="49.7245" x2="56.5359" y2="49.7245" gradientUnits="userSpaceOnUse">
<stop stop-color="#3F63AE"/>
<stop offset="1" stop-color="#18A5DE"/>
</linearGradient>
<linearGradient id="paint8_linear_80_99" x1="38.849" y1="31.6277" x2="56.53" y2="31.6277" gradientUnits="userSpaceOnUse">
<stop stop-color="#3F63AE"/>
<stop offset="1" stop-color="#18A5DE"/>
</linearGradient>
<linearGradient id="paint9_linear_80_99" x1="56.099" y1="57.3881" x2="62.5825" y2="57.3881" gradientUnits="userSpaceOnUse">
<stop stop-color="#3F63AE"/>
<stop offset="1" stop-color="#18A5DE"/>
</linearGradient>
</defs>
</svg>
