<svg width="90" height="90" viewBox="0 0 90 90" fill="none" xmlns="http://www.w3.org/2000/svg">
<path d="M44.68 87.36C68.2515 87.36 87.36 68.2515 87.36 44.68C87.36 21.1085 68.2515 2 44.68 2C21.1085 2 2 21.1085 2 44.68C2 68.2515 21.1085 87.36 44.68 87.36Z" fill="white" stroke="url(#paint0_linear_80_100)" stroke-width="4" stroke-miterlimit="10"/>
<path d="M60.3599 65.85C60.3599 56.25 60.3599 46.72 60.3599 37.11C63.4999 37.11 66.6099 37.11 69.8199 37.11C69.8199 46.67 69.8199 56.23 69.8199 65.85C66.6599 65.85 63.5499 65.85 60.3599 65.85Z" fill="url(#paint1_linear_80_100)"/>
<path d="M52.2302 25.32C51.4202 24.6 50.7002 23.96 49.7602 23.14C53.4902 22.4 56.9802 21.72 60.6402 21C60.2802 24.48 59.9402 27.85 59.5802 31.42C58.7302 30.75 58.0502 30.22 57.2702 29.61C46.9202 40.12 34.4102 46.7 20.1602 50.13C31.9402 43.31 43.1702 35.79 52.2302 25.32Z" fill="url(#paint2_linear_80_100)"/>
<path d="M56.3699 65.89C53.1699 65.89 50.0999 65.89 46.9399 65.89C46.9399 58.61 46.9399 51.38 46.9399 44.05C50.0799 44.05 53.1799 44.05 56.3699 44.05C56.3699 51.32 56.3699 58.55 56.3699 65.89Z" fill="url(#paint3_linear_80_100)"/>
<path d="M42.91 65.85C39.79 65.85 36.71 65.85 33.52 65.85C33.52 60.72 33.52 55.56 33.52 50.3C36.59 50.3 39.7 50.3 42.91 50.3C42.91 55.46 42.91 60.61 42.91 65.85Z" fill="url(#paint4_linear_80_100)"/>
<path d="M29.51 65.88C26.3 65.88 23.19 65.88 20 65.88C20 62.75 20 59.68 20 56.52C23.15 56.52 26.26 56.52 29.51 56.52C29.51 59.59 29.51 62.68 29.51 65.88Z" fill="url(#paint5_linear_80_100)"/>
<defs>
<linearGradient id="paint0_linear_80_100" x1="1.26873e-08" y1="44.6816" x2="89.3632" y2="44.6816" gradientUnits="userSpaceOnUse">
<stop stop-color="#3F63AE"/>
<stop offset="1" stop-color="#18A5DE"/>
</linearGradient>
<linearGradient id="paint1_linear_80_100" x1="60.364" y1="51.4804" x2="69.821" y2="51.4804" gradientUnits="userSpaceOnUse">
<stop stop-color="#3F63AE"/>
<stop offset="1" stop-color="#18A5DE"/>
</linearGradient>
<linearGradient id="paint2_linear_80_100" x1="20.1569" y1="35.5651" x2="60.6372" y2="35.5651" gradientUnits="userSpaceOnUse">
<stop stop-color="#3F63AE"/>
<stop offset="1" stop-color="#18A5DE"/>
</linearGradient>
<linearGradient id="paint3_linear_80_100" x1="46.9394" y1="54.9753" x2="56.3653" y2="54.9753" gradientUnits="userSpaceOnUse">
<stop stop-color="#3F63AE"/>
<stop offset="1" stop-color="#18A5DE"/>
</linearGradient>
<linearGradient id="paint4_linear_80_100" x1="33.5176" y1="58.0753" x2="42.9115" y2="58.0753" gradientUnits="userSpaceOnUse">
<stop stop-color="#3F63AE"/>
<stop offset="1" stop-color="#18A5DE"/>
</linearGradient>
<linearGradient id="paint5_linear_80_100" x1="20" y1="61.2018" x2="29.5132" y2="61.2018" gradientUnits="userSpaceOnUse">
<stop stop-color="#3F63AE"/>
<stop offset="1" stop-color="#18A5DE"/>
</linearGradient>
</defs>
</svg>
