<svg width="90" height="90" viewBox="0 0 90 90" fill="none" xmlns="http://www.w3.org/2000/svg">
<path d="M44.68 87.36C68.2515 87.36 87.36 68.2515 87.36 44.68C87.36 21.1085 68.2515 2 44.68 2C21.1085 2 2 21.1085 2 44.68C2 68.2515 21.1085 87.36 44.68 87.36Z" fill="white" stroke="url(#paint0_linear_80_101)" stroke-width="4" stroke-miterlimit="10"/>
<path d="M53.2199 27.82C52.4799 28.61 51.7299 29.42 50.8699 30.35C48.1499 27.43 45.2199 25.52 41.5199 24.8C33.6699 23.27 25.5299 28.67 24.0099 36.52C22.3799 44.9 27.7199 53 35.8599 54.5C45.6699 56.31 54.3299 48.82 53.9499 38.85C53.8399 35.87 53.8399 35.87 56.4599 33.96C59.2499 39.84 57.2599 50.77 48.2399 55.97C39.4999 61.01 28.4299 58.29 22.9199 49.69C17.4599 41.2 19.8899 29.74 28.3599 24.03C36.2899 18.68 47.7799 20.38 53.2199 27.82Z" fill="url(#paint1_linear_80_101)"/>
<path d="M38.1299 44.48C39.0899 43.65 39.8999 43.01 40.6499 42.3C45.4699 37.64 50.2799 32.96 55.0999 28.3C55.4999 27.91 55.9499 27.43 56.4399 27.32C56.9799 27.2 57.8199 27.25 58.1499 27.59C58.4799 27.94 58.5399 28.79 58.3699 29.31C58.1899 29.87 57.6399 30.33 57.1899 30.77C51.4299 36.39 45.6599 42 39.8699 47.6C38.1899 49.22 37.5699 49.2 36.1299 47.36C33.8599 44.47 31.6699 41.53 29.4399 38.61C28.6899 37.63 28.1199 36.44 29.4699 35.77C30.0499 35.48 31.4799 36.05 32.0099 36.67C34.1099 39.11 36.0099 41.73 38.1299 44.48Z" fill="url(#paint2_linear_80_101)"/>
<path d="M50.6997 56.26C52.3797 54.74 53.8897 53.36 55.9897 51.45C56.4297 52.05 57.0597 53.17 57.9297 54.06C61.1297 57.36 64.4297 60.56 67.6597 63.84C69.3397 65.55 69.3597 67.12 67.8497 68.65C66.3297 70.19 64.7297 70.2 63.0397 68.54C58.9097 64.48 54.8197 60.37 50.6997 56.26Z" fill="url(#paint3_linear_80_101)"/>
<path d="M58.0201 19.16C58.1201 19.33 58.3401 19.54 58.3001 19.67C58.0001 20.75 57.6501 21.82 57.3201 22.89C57.0901 22.78 56.6401 22.65 56.6501 22.58C56.8301 21.38 57.0601 20.19 57.2901 19C57.5401 19.05 57.7801 19.1 58.0201 19.16Z" fill="url(#paint4_linear_80_101)"/>
<path d="M59.71 24.04C60.6 23.1 61.49 22.16 62.37 21.21C62.63 21.45 62.9 21.69 63.16 21.93C62.31 22.9 61.46 23.88 60.61 24.85C60.32 24.58 60.02 24.31 59.71 24.04Z" fill="url(#paint5_linear_80_101)"/>
<path d="M65.9697 26.67C64.9297 27.06 63.8997 27.49 62.8397 27.81C62.6497 27.87 62.2497 27.54 62.1097 27.29C62.0297 27.15 62.2197 26.67 62.3897 26.61C63.4397 26.23 64.5297 25.92 65.5997 25.58C65.7197 25.95 65.8497 26.31 65.9697 26.67Z" fill="url(#paint6_linear_80_101)"/>
<defs>
<linearGradient id="paint0_linear_80_101" x1="1.26873e-08" y1="44.6816" x2="89.3632" y2="44.6816" gradientUnits="userSpaceOnUse">
<stop stop-color="#3F63AE"/>
<stop offset="1" stop-color="#18A5DE"/>
</linearGradient>
<linearGradient id="paint1_linear_80_101" x1="19.9999" y1="39.6997" x2="57.6191" y2="39.6997" gradientUnits="userSpaceOnUse">
<stop stop-color="#3F63AE"/>
<stop offset="1" stop-color="#18A5DE"/>
</linearGradient>
<linearGradient id="paint2_linear_80_101" x1="28.6544" y1="38.0115" x2="58.4601" y2="38.0115" gradientUnits="userSpaceOnUse">
<stop stop-color="#3F63AE"/>
<stop offset="1" stop-color="#18A5DE"/>
</linearGradient>
<linearGradient id="paint3_linear_80_101" x1="50.6969" y1="60.6268" x2="68.9469" y2="60.6268" gradientUnits="userSpaceOnUse">
<stop stop-color="#3F63AE"/>
<stop offset="1" stop-color="#18A5DE"/>
</linearGradient>
<linearGradient id="paint4_linear_80_101" x1="56.6651" y1="20.9458" x2="58.3132" y2="20.9458" gradientUnits="userSpaceOnUse">
<stop stop-color="#3F63AE"/>
<stop offset="1" stop-color="#18A5DE"/>
</linearGradient>
<linearGradient id="paint5_linear_80_101" x1="59.7146" y1="23.0339" x2="63.1714" y2="23.0339" gradientUnits="userSpaceOnUse">
<stop stop-color="#3F63AE"/>
<stop offset="1" stop-color="#18A5DE"/>
</linearGradient>
<linearGradient id="paint6_linear_80_101" x1="62.0891" y1="26.705" x2="65.9713" y2="26.705" gradientUnits="userSpaceOnUse">
<stop stop-color="#3F63AE"/>
<stop offset="1" stop-color="#18A5DE"/>
</linearGradient>
</defs>
</svg>
